# xmcd CD database file
#
# Track frame offsets:
#	150
#	28887
#	42686
#	62636
#	94435
#	116562
#	135238
#	152263
#	172514
#	191789
#	201389
#	217739
#	240090
#	249016
#
# Disc length: 3586 seconds
#
# Revision: 3
# Processed by: cddbd v1.5.2PL0 Copyright (c) Steve Scherf et al.
# Submitted via: CDex 1.70beta2
#
DISCID=b00e000e
DTITLE=Uwe Kropinski - Joe Sachse - Hey Joe, Hey Uwe
DYEAR=2007
DGENRE=Jazz
TTITLE0=Hongkingkong
TTITLE1=Willis Schwabe
TTITLE2=Ein Germane in Madrid
TTITLE3=Sonntag
TTITLE4=Stilleben
TTITLE5=Alberner Pinsel
TTITLE6=Addis Abbaba Blues
TTITLE7=FFFF
TTITLE8=Ballade für Klaus Koch
TTITLE9=Der Geist von Toledo
TTITLE10=Mechanicus
TTITLE11=Acoustic Guitar Goes Disco
TTITLE12=Hymne
TTITLE13=Guitar Guitar
EXTD=YEAR: 2007
EXTT0=
EXTT1=
EXTT2=
EXTT3=
EXTT4=
EXTT5=
EXTT6=
EXTT7=
EXTT8=
EXTT9=
EXTT10=
EXTT11=
EXTT12=
EXTT13=
PLAYORDER=
